<mxfile host="app.diagrams.net" modified="2023-08-20T23:05:36.308Z" agent="Mozilla/5.0 (Windows NT 10.0; Win64; x64) AppleWebKit/537.36 (KHTML, like Gecko) Chrome/115.0.0.0 Safari/537.36" etag="StSHdKpFcdmpSa78pqgS" version="21.6.8" type="device">
  <diagram id="C5RBs43oDa-KdzZeNtuy" name="Page-1">
    <mxGraphModel dx="1114" dy="578" grid="1" gridSize="10" guides="1" tooltips="1" connect="1" arrows="1" fold="1" page="1" pageScale="1" pageWidth="827" pageHeight="1169" math="0" shadow="0">
      <root>
        <mxCell id="WIyWlLk6GJQsqaUBKTNV-0" />
        <mxCell id="WIyWlLk6GJQsqaUBKTNV-1" parent="WIyWlLk6GJQsqaUBKTNV-0" />
        <mxCell id="Q7FtHAjYdcZ-HJjk66lP-16" value="" style="edgeStyle=orthogonalEdgeStyle;rounded=0;orthogonalLoop=1;jettySize=auto;html=1;shape=link;" edge="1" parent="WIyWlLk6GJQsqaUBKTNV-1" source="zkfFHV4jXpPFQw0GAbJ--0" target="Q7FtHAjYdcZ-HJjk66lP-2">
          <mxGeometry relative="1" as="geometry" />
        </mxCell>
        <mxCell id="zkfFHV4jXpPFQw0GAbJ--0" value="Java Web Servers" style="swimlane;fontStyle=2;align=center;verticalAlign=top;childLayout=stackLayout;horizontal=1;startSize=26;horizontalStack=0;resizeParent=1;resizeLast=0;collapsible=1;marginBottom=0;rounded=0;shadow=0;strokeWidth=1;" parent="WIyWlLk6GJQsqaUBKTNV-1" vertex="1">
          <mxGeometry x="20" y="100" width="190" height="138" as="geometry">
            <mxRectangle x="230" y="140" width="160" height="26" as="alternateBounds" />
          </mxGeometry>
        </mxCell>
        <mxCell id="Q7FtHAjYdcZ-HJjk66lP-0" value="ApacheTomcat : PopularChoice" style="text;html=1;align=center;verticalAlign=middle;resizable=0;points=[];autosize=1;strokeColor=none;fillColor=none;" vertex="1" parent="zkfFHV4jXpPFQw0GAbJ--0">
          <mxGeometry y="26" width="190" height="30" as="geometry" />
        </mxCell>
        <mxCell id="Q7FtHAjYdcZ-HJjk66lP-7" value="" style="edgeStyle=orthogonalEdgeStyle;rounded=0;orthogonalLoop=1;jettySize=auto;html=1;shape=link;" edge="1" parent="WIyWlLk6GJQsqaUBKTNV-1" source="Q7FtHAjYdcZ-HJjk66lP-1" target="Q7FtHAjYdcZ-HJjk66lP-6">
          <mxGeometry relative="1" as="geometry" />
        </mxCell>
        <mxCell id="Q7FtHAjYdcZ-HJjk66lP-1" value="Apache Tomcat" style="swimlane;fontStyle=2;align=center;verticalAlign=top;childLayout=stackLayout;horizontal=1;startSize=26;horizontalStack=0;resizeParent=1;resizeLast=0;collapsible=1;marginBottom=0;rounded=0;shadow=0;strokeWidth=1;" vertex="1" parent="WIyWlLk6GJQsqaUBKTNV-1">
          <mxGeometry x="240" y="100" width="295" height="138" as="geometry">
            <mxRectangle x="230" y="140" width="160" height="26" as="alternateBounds" />
          </mxGeometry>
        </mxCell>
        <mxCell id="Q7FtHAjYdcZ-HJjk66lP-2" value="- shipAs : ServletContainer&amp;nbsp;&lt;br&gt;- managementDashboard : ManagementDashboard" style="text;html=1;align=center;verticalAlign=middle;resizable=0;points=[];autosize=1;strokeColor=none;fillColor=none;" vertex="1" parent="Q7FtHAjYdcZ-HJjk66lP-1">
          <mxGeometry y="26" width="295" height="40" as="geometry" />
        </mxCell>
        <mxCell id="Q7FtHAjYdcZ-HJjk66lP-13" value="" style="edgeStyle=orthogonalEdgeStyle;rounded=0;orthogonalLoop=1;jettySize=auto;html=1;shape=link;" edge="1" parent="WIyWlLk6GJQsqaUBKTNV-1" source="Q7FtHAjYdcZ-HJjk66lP-3" target="Q7FtHAjYdcZ-HJjk66lP-12">
          <mxGeometry relative="1" as="geometry" />
        </mxCell>
        <mxCell id="Q7FtHAjYdcZ-HJjk66lP-3" value="ServletContainer" style="swimlane;fontStyle=2;align=center;verticalAlign=top;childLayout=stackLayout;horizontal=1;startSize=26;horizontalStack=0;resizeParent=1;resizeLast=0;collapsible=1;marginBottom=0;rounded=0;shadow=0;strokeWidth=1;" vertex="1" parent="WIyWlLk6GJQsqaUBKTNV-1">
          <mxGeometry x="560" y="100" width="260" height="138" as="geometry">
            <mxRectangle x="230" y="140" width="160" height="26" as="alternateBounds" />
          </mxGeometry>
        </mxCell>
        <mxCell id="Q7FtHAjYdcZ-HJjk66lP-4" value="- serveArchive : WARArchive" style="text;html=1;align=center;verticalAlign=middle;resizable=0;points=[];autosize=1;strokeColor=none;fillColor=none;" vertex="1" parent="Q7FtHAjYdcZ-HJjk66lP-3">
          <mxGeometry y="26" width="260" height="30" as="geometry" />
        </mxCell>
        <mxCell id="Q7FtHAjYdcZ-HJjk66lP-14" style="edgeStyle=orthogonalEdgeStyle;rounded=0;orthogonalLoop=1;jettySize=auto;html=1;exitX=1;exitY=0.5;exitDx=0;exitDy=0;" edge="1" parent="WIyWlLk6GJQsqaUBKTNV-1" source="Q7FtHAjYdcZ-HJjk66lP-5">
          <mxGeometry relative="1" as="geometry">
            <mxPoint x="590" y="370" as="targetPoint" />
          </mxGeometry>
        </mxCell>
        <mxCell id="Q7FtHAjYdcZ-HJjk66lP-20" value="No Container Restart" style="edgeLabel;html=1;align=center;verticalAlign=middle;resizable=0;points=[];" vertex="1" connectable="0" parent="Q7FtHAjYdcZ-HJjk66lP-14">
          <mxGeometry x="-0.2727" relative="1" as="geometry">
            <mxPoint x="13" y="11" as="offset" />
          </mxGeometry>
        </mxCell>
        <mxCell id="Q7FtHAjYdcZ-HJjk66lP-22" style="edgeStyle=orthogonalEdgeStyle;rounded=0;orthogonalLoop=1;jettySize=auto;html=1;exitX=0.5;exitY=1;exitDx=0;exitDy=0;entryX=0;entryY=0.5;entryDx=0;entryDy=0;" edge="1" parent="WIyWlLk6GJQsqaUBKTNV-1" source="Q7FtHAjYdcZ-HJjk66lP-5" target="Q7FtHAjYdcZ-HJjk66lP-21">
          <mxGeometry relative="1" as="geometry" />
        </mxCell>
        <mxCell id="Q7FtHAjYdcZ-HJjk66lP-23" value="Undeploy&lt;br&gt;" style="edgeLabel;html=1;align=center;verticalAlign=middle;resizable=0;points=[];" vertex="1" connectable="0" parent="Q7FtHAjYdcZ-HJjk66lP-22">
          <mxGeometry x="0.2596" y="1" relative="1" as="geometry">
            <mxPoint x="1" as="offset" />
          </mxGeometry>
        </mxCell>
        <mxCell id="Q7FtHAjYdcZ-HJjk66lP-39" style="edgeStyle=orthogonalEdgeStyle;rounded=0;orthogonalLoop=1;jettySize=auto;html=1;exitX=0.25;exitY=1;exitDx=0;exitDy=0;entryX=0;entryY=0.5;entryDx=0;entryDy=0;" edge="1" parent="WIyWlLk6GJQsqaUBKTNV-1" source="Q7FtHAjYdcZ-HJjk66lP-5" target="Q7FtHAjYdcZ-HJjk66lP-36">
          <mxGeometry relative="1" as="geometry" />
        </mxCell>
        <mxCell id="Q7FtHAjYdcZ-HJjk66lP-40" value="Deploy" style="edgeLabel;html=1;align=center;verticalAlign=middle;resizable=0;points=[];" vertex="1" connectable="0" parent="Q7FtHAjYdcZ-HJjk66lP-39">
          <mxGeometry x="0.359" y="1" relative="1" as="geometry">
            <mxPoint as="offset" />
          </mxGeometry>
        </mxCell>
        <mxCell id="Q7FtHAjYdcZ-HJjk66lP-5" value="ManagementDashboard" style="swimlane;fontStyle=2;align=center;verticalAlign=top;childLayout=stackLayout;horizontal=1;startSize=26;horizontalStack=0;resizeParent=1;resizeLast=0;collapsible=1;marginBottom=0;rounded=0;shadow=0;strokeWidth=1;" vertex="1" parent="WIyWlLk6GJQsqaUBKTNV-1">
          <mxGeometry x="150" y="310" width="295" height="138" as="geometry">
            <mxRectangle x="230" y="140" width="160" height="26" as="alternateBounds" />
          </mxGeometry>
        </mxCell>
        <mxCell id="Q7FtHAjYdcZ-HJjk66lP-6" value="- deploy: WebApplication&lt;br&gt;- undeploy: ExistedWebApplication" style="text;html=1;align=center;verticalAlign=middle;resizable=0;points=[];autosize=1;strokeColor=none;fillColor=none;" vertex="1" parent="Q7FtHAjYdcZ-HJjk66lP-5">
          <mxGeometry y="26" width="295" height="40" as="geometry" />
        </mxCell>
        <mxCell id="Q7FtHAjYdcZ-HJjk66lP-11" value="WARarchive" style="swimlane;fontStyle=2;align=center;verticalAlign=top;childLayout=stackLayout;horizontal=1;startSize=26;horizontalStack=0;resizeParent=1;resizeLast=0;collapsible=1;marginBottom=0;rounded=0;shadow=0;strokeWidth=1;" vertex="1" parent="WIyWlLk6GJQsqaUBKTNV-1">
          <mxGeometry x="590" y="290" width="260" height="138" as="geometry">
            <mxRectangle x="230" y="140" width="160" height="26" as="alternateBounds" />
          </mxGeometry>
        </mxCell>
        <mxCell id="Q7FtHAjYdcZ-HJjk66lP-12" value="- runApplication : executable" style="text;html=1;align=center;verticalAlign=middle;resizable=0;points=[];autosize=1;strokeColor=none;fillColor=none;" vertex="1" parent="Q7FtHAjYdcZ-HJjk66lP-11">
          <mxGeometry y="26" width="260" height="30" as="geometry" />
        </mxCell>
        <mxCell id="Q7FtHAjYdcZ-HJjk66lP-17" value="" style="edgeStyle=orthogonalEdgeStyle;rounded=0;orthogonalLoop=1;jettySize=auto;html=1;strokeColor=default;shape=link;" edge="1" parent="WIyWlLk6GJQsqaUBKTNV-1" source="Q7FtHAjYdcZ-HJjk66lP-2" target="Q7FtHAjYdcZ-HJjk66lP-4">
          <mxGeometry relative="1" as="geometry" />
        </mxCell>
        <mxCell id="Q7FtHAjYdcZ-HJjk66lP-26" value="" style="group" vertex="1" connectable="0" parent="WIyWlLk6GJQsqaUBKTNV-1">
          <mxGeometry x="400" y="500" width="80" height="80" as="geometry" />
        </mxCell>
        <mxCell id="Q7FtHAjYdcZ-HJjk66lP-21" value="Production" style="ellipse;whiteSpace=wrap;html=1;" vertex="1" parent="Q7FtHAjYdcZ-HJjk66lP-26">
          <mxGeometry width="80" height="80" as="geometry" />
        </mxCell>
        <mxCell id="Q7FtHAjYdcZ-HJjk66lP-24" value="W" style="ellipse;whiteSpace=wrap;html=1;aspect=fixed;" vertex="1" parent="Q7FtHAjYdcZ-HJjk66lP-26">
          <mxGeometry x="14" y="10" width="20" height="20" as="geometry" />
        </mxCell>
        <mxCell id="Q7FtHAjYdcZ-HJjk66lP-25" value="W" style="ellipse;whiteSpace=wrap;html=1;aspect=fixed;" vertex="1" parent="Q7FtHAjYdcZ-HJjk66lP-26">
          <mxGeometry x="45" y="10" width="20" height="20" as="geometry" />
        </mxCell>
        <mxCell id="Q7FtHAjYdcZ-HJjk66lP-27" value="" style="group" vertex="1" connectable="0" parent="WIyWlLk6GJQsqaUBKTNV-1">
          <mxGeometry x="510" y="500" width="80" height="80" as="geometry" />
        </mxCell>
        <mxCell id="Q7FtHAjYdcZ-HJjk66lP-28" value="Production" style="ellipse;whiteSpace=wrap;html=1;" vertex="1" parent="Q7FtHAjYdcZ-HJjk66lP-27">
          <mxGeometry width="80" height="80" as="geometry" />
        </mxCell>
        <mxCell id="Q7FtHAjYdcZ-HJjk66lP-29" value="W" style="ellipse;whiteSpace=wrap;html=1;aspect=fixed;" vertex="1" parent="Q7FtHAjYdcZ-HJjk66lP-27">
          <mxGeometry x="14" y="10" width="20" height="20" as="geometry" />
        </mxCell>
        <mxCell id="Q7FtHAjYdcZ-HJjk66lP-30" value="" style="ellipse;whiteSpace=wrap;html=1;aspect=fixed;" vertex="1" parent="Q7FtHAjYdcZ-HJjk66lP-27">
          <mxGeometry x="45" y="10" width="20" height="20" as="geometry" />
        </mxCell>
        <mxCell id="Q7FtHAjYdcZ-HJjk66lP-33" style="edgeStyle=orthogonalEdgeStyle;rounded=0;orthogonalLoop=1;jettySize=auto;html=1;exitX=1;exitY=0.5;exitDx=0;exitDy=0;entryX=0;entryY=0.5;entryDx=0;entryDy=0;" edge="1" parent="WIyWlLk6GJQsqaUBKTNV-1" source="Q7FtHAjYdcZ-HJjk66lP-21" target="Q7FtHAjYdcZ-HJjk66lP-28">
          <mxGeometry relative="1" as="geometry" />
        </mxCell>
        <mxCell id="Q7FtHAjYdcZ-HJjk66lP-35" value="" style="group" vertex="1" connectable="0" parent="WIyWlLk6GJQsqaUBKTNV-1">
          <mxGeometry x="400" y="600" width="80" height="80" as="geometry" />
        </mxCell>
        <mxCell id="Q7FtHAjYdcZ-HJjk66lP-36" value="Production" style="ellipse;whiteSpace=wrap;html=1;" vertex="1" parent="Q7FtHAjYdcZ-HJjk66lP-35">
          <mxGeometry width="80" height="80" as="geometry" />
        </mxCell>
        <mxCell id="Q7FtHAjYdcZ-HJjk66lP-37" value="W" style="ellipse;whiteSpace=wrap;html=1;aspect=fixed;" vertex="1" parent="Q7FtHAjYdcZ-HJjk66lP-35">
          <mxGeometry x="14" y="10" width="20" height="20" as="geometry" />
        </mxCell>
        <mxCell id="Q7FtHAjYdcZ-HJjk66lP-38" value="" style="ellipse;whiteSpace=wrap;html=1;aspect=fixed;" vertex="1" parent="Q7FtHAjYdcZ-HJjk66lP-35">
          <mxGeometry x="45" y="10" width="20" height="20" as="geometry" />
        </mxCell>
        <mxCell id="Q7FtHAjYdcZ-HJjk66lP-41" value="Production" style="ellipse;whiteSpace=wrap;html=1;" vertex="1" parent="WIyWlLk6GJQsqaUBKTNV-1">
          <mxGeometry x="510" y="600" width="80" height="80" as="geometry" />
        </mxCell>
        <mxCell id="Q7FtHAjYdcZ-HJjk66lP-42" style="edgeStyle=orthogonalEdgeStyle;rounded=0;orthogonalLoop=1;jettySize=auto;html=1;exitX=1;exitY=0.5;exitDx=0;exitDy=0;" edge="1" parent="WIyWlLk6GJQsqaUBKTNV-1" source="Q7FtHAjYdcZ-HJjk66lP-36" target="Q7FtHAjYdcZ-HJjk66lP-41">
          <mxGeometry relative="1" as="geometry" />
        </mxCell>
        <mxCell id="Q7FtHAjYdcZ-HJjk66lP-43" value="W" style="ellipse;whiteSpace=wrap;html=1;aspect=fixed;" vertex="1" parent="WIyWlLk6GJQsqaUBKTNV-1">
          <mxGeometry x="524.5" y="610" width="20" height="20" as="geometry" />
        </mxCell>
        <mxCell id="Q7FtHAjYdcZ-HJjk66lP-45" value="W" style="ellipse;whiteSpace=wrap;html=1;aspect=fixed;" vertex="1" parent="WIyWlLk6GJQsqaUBKTNV-1">
          <mxGeometry x="557" y="610" width="20" height="20" as="geometry" />
        </mxCell>
      </root>
    </mxGraphModel>
  </diagram>
</mxfile>
